<svg id="visual" viewBox="0 0 1500 4000" width="1500" height="4000" xmlns="http://www.w3.org/2000/svg" xmlns:xlink="http://www.w3.org/1999/xlink" version="1.1"><rect x="0" y="0" width="1500" height="4000" fill="#F2C3A7"></rect><path d="M0 972L41.7 933.7C83.3 895.3 166.7 818.7 250 825.7C333.3 832.7 416.7 923.3 500 924.2C583.3 925 666.7 836 750 821C833.3 806 916.7 865 1000 871.2C1083.3 877.3 1166.7 830.7 1250 812.2C1333.3 793.7 1416.7 803.3 1458.3 808.2L1500 813L1500 4001L1458.3 4001C1416.7 4001 1333.3 4001 1250 4001C1166.7 4001 1083.3 4001 1000 4001C916.7 4001 833.3 4001 750 4001C666.7 4001 583.3 4001 500 4001C416.7 4001 333.3 4001 250 4001C166.7 4001 83.3 4001 41.7 4001L0 4001Z" fill="#d9725b"></path><path d="M0 1195L41.7 1168.3C83.3 1141.7 166.7 1088.3 250 1089.7C333.3 1091 416.7 1147 500 1204.2C583.3 1261.3 666.7 1319.7 750 1353C833.3 1386.3 916.7 1394.7 1000 1385.5C1083.3 1376.3 1166.7 1349.7 1250 1346.8C1333.3 1344 1416.7 1365 1458.3 1375.5L1500 1386L1500 4001L1458.3 4001C1416.7 4001 1333.3 4001 1250 4001C1166.7 4001 1083.3 4001 1000 4001C916.7 4001 833.3 4001 750 4001C666.7 4001 583.3 4001 500 4001C416.7 4001 333.3 4001 250 4001C166.7 4001 83.3 4001 41.7 4001L0 4001Z" fill="#c86855"></path><path d="M0 1550L41.7 1545.3C83.3 1540.7 166.7 1531.3 250 1500.2C333.3 1469 416.7 1416 500 1423C583.3 1430 666.7 1497 750 1569.5C833.3 1642 916.7 1720 1000 1705.7C1083.3 1691.3 1166.7 1584.7 1250 1517.5C1333.3 1450.3 1416.7 1422.7 1458.3 1408.8L1500 1395L1500 4001L1458.3 4001C1416.7 4001 1333.3 4001 1250 4001C1166.7 4001 1083.3 4001 1000 4001C916.7 4001 833.3 4001 750 4001C666.7 4001 583.3 4001 500 4001C416.7 4001 333.3 4001 250 4001C166.7 4001 83.3 4001 41.7 4001L0 4001Z" fill="#b85e4f"></path><path d="M0 1839L41.7 1853.3C83.3 1867.7 166.7 1896.3 250 1928.2C333.3 1960 416.7 1995 500 2001.3C583.3 2007.7 666.7 1985.3 750 1960.5C833.3 1935.7 916.7 1908.3 1000 1912.5C1083.3 1916.7 1166.7 1952.3 1250 1934C1333.3 1915.7 1416.7 1843.3 1458.3 1807.2L1500 1771L1500 4001L1458.3 4001C1416.7 4001 1333.3 4001 1250 4001C1166.7 4001 1083.3 4001 1000 4001C916.7 4001 833.3 4001 750 4001C666.7 4001 583.3 4001 500 4001C416.7 4001 333.3 4001 250 4001C166.7 4001 83.3 4001 41.7 4001L0 4001Z" fill="#a75449"></path><path d="M0 2060L41.7 2077.8C83.3 2095.7 166.7 2131.3 250 2168.2C333.3 2205 416.7 2243 500 2251.8C583.3 2260.7 666.7 2240.3 750 2240C833.3 2239.7 916.7 2259.3 1000 2277.5C1083.3 2295.7 1166.7 2312.3 1250 2321.7C1333.3 2331 1416.7 2333 1458.3 2334L1500 2335L1500 4001L1458.3 4001C1416.7 4001 1333.3 4001 1250 4001C1166.7 4001 1083.3 4001 1000 4001C916.7 4001 833.3 4001 750 4001C666.7 4001 583.3 4001 500 4001C416.7 4001 333.3 4001 250 4001C166.7 4001 83.3 4001 41.7 4001L0 4001Z" fill="#974b43"></path><path d="M0 2616L41.7 2618.7C83.3 2621.3 166.7 2626.7 250 2616.3C333.3 2606 416.7 2580 500 2596.5C583.3 2613 666.7 2672 750 2678.8C833.3 2685.7 916.7 2640.3 1000 2642.5C1083.3 2644.7 1166.7 2694.3 1250 2669C1333.3 2643.7 1416.7 2543.3 1458.3 2493.2L1500 2443L1500 4001L1458.3 4001C1416.7 4001 1333.3 4001 1250 4001C1166.7 4001 1083.3 4001 1000 4001C916.7 4001 833.3 4001 750 4001C666.7 4001 583.3 4001 500 4001C416.7 4001 333.3 4001 250 4001C166.7 4001 83.3 4001 41.7 4001L0 4001Z" fill="#87423c"></path><path d="M0 2849L41.7 2876.3C83.3 2903.7 166.7 2958.3 250 2960.2C333.3 2962 416.7 2911 500 2913.7C583.3 2916.3 666.7 2972.7 750 2963.7C833.3 2954.7 916.7 2880.3 1000 2846.5C1083.3 2812.7 1166.7 2819.3 1250 2847C1333.3 2874.7 1416.7 2923.3 1458.3 2947.7L1500 2972L1500 4001L1458.3 4001C1416.7 4001 1333.3 4001 1250 4001C1166.7 4001 1083.3 4001 1000 4001C916.7 4001 833.3 4001 750 4001C666.7 4001 583.3 4001 500 4001C416.7 4001 333.3 4001 250 4001C166.7 4001 83.3 4001 41.7 4001L0 4001Z" fill="#773936"></path><path d="M0 3363L41.7 3340.7C83.3 3318.3 166.7 3273.7 250 3279.3C333.3 3285 416.7 3341 500 3347.7C583.3 3354.3 666.7 3311.7 750 3284.8C833.3 3258 916.7 3247 1000 3239.7C1083.3 3232.3 1166.7 3228.7 1250 3222.5C1333.3 3216.3 1416.7 3207.7 1458.3 3203.3L1500 3199L1500 4001L1458.3 4001C1416.7 4001 1333.3 4001 1250 4001C1166.7 4001 1083.3 4001 1000 4001C916.7 4001 833.3 4001 750 4001C666.7 4001 583.3 4001 500 4001C416.7 4001 333.3 4001 250 4001C166.7 4001 83.3 4001 41.7 4001L0 4001Z" fill="#68302f"></path><path d="M0 3600L41.7 3624.2C83.3 3648.3 166.7 3696.7 250 3698.5C333.3 3700.3 416.7 3655.7 500 3664C583.3 3672.3 666.7 3733.7 750 3726.3C833.3 3719 916.7 3643 1000 3622.5C1083.3 3602 1166.7 3637 1250 3665.7C1333.3 3694.3 1416.7 3716.7 1458.3 3727.8L1500 3739L1500 4001L1458.3 4001C1416.7 4001 1333.3 4001 1250 4001C1166.7 4001 1083.3 4001 1000 4001C916.7 4001 833.3 4001 750 4001C666.7 4001 583.3 4001 500 4001C416.7 4001 333.3 4001 250 4001C166.7 4001 83.3 4001 41.7 4001L0 4001Z" fill="#592828"></path></svg>