<svg xmlns="http://www.w3.org/2000/svg" version="1.1" xmlns:xlink="http://www.w3.org/1999/xlink" xmlns:svgjs="http://svgjs.com/svgjs" width="2000" height="4000" preserveAspectRatio="none" viewBox="0 0 2000 4000"><g mask="url(&quot;#SvgjsMask1106&quot;)" fill="none"><rect width="2000" height="4000" x="0" y="0" fill="rgba(242, 195, 167, 1)"></rect><path d="M2000.0000000000005 4000L0 4000 L0 873.12Q272.91 1046.03, 100 1318.93Q37.32 1089.58, 266.6666666666667 1026.9Q278.53 872.1, 433.33333333333337 883.97Q465.84 816.48, 533.3333333333334 848.98Q654.39 803.37, 700 924.42Q790.38 914.79, 800 1005.17Q1105.75 1144.26, 966.6666666666667 1450.01Q892.52 1209.19, 1133.3333333333335 1135.04Q1076.43 911.47, 1300.0000000000002 854.57Q1556.29 1010.86, 1400.0000000000002 1267.14Q1376.77 1077.24, 1566.666666666667 1054.01Q1495.04 882.38, 1666.666666666667 810.76Q2059.41 1036.84, 1833.3333333333337 1429.58Q1626.94 1056.52, 2000.0000000000005 850.13z" fill="rgba(242, 155, 136, 1)"></path><path d="M2033.3333333333337 4000L0 4000 L0 1946.2Q1.03 1847.23, 100 1848.26Q38.58 1620.18, 266.6666666666667 1558.76Q319.71 1445.13, 433.33333333333337 1498.17Q466.38 1431.22, 533.3333333333334 1464.27Q578.15 1342.42, 700 1387.24Q740.79 1328.03, 800 1368.82Q918.01 1320.16, 966.6666666666667 1438.17Q1023.49 1328.33, 1133.3333333333335 1385.15Q1227.97 1313.12, 1300.0000000000002 1407.76Q1387.72 1395.47, 1400.0000000000002 1483.19Q1617.05 1533.57, 1566.666666666667 1750.62Q1547 1630.95, 1666.666666666667 1611.28Q1924.24 1768.86, 1766.666666666667 2026.43Q1615.19 1708.29, 1933.3333333333337 1556.81Q2175.31 1698.79, 2033.3333333333337 1940.77z" fill="rgba(217, 114, 91, 1)"></path><path d="M2033.3333333333337 4000L0 4000 L0 2006.46Q349.83 2189.63, 166.66666666666669 2539.46Q153.23 2359.36, 333.33333333333337 2345.93Q395.16 2241.09, 500.00000000000006 2302.92Q617.11 2253.36, 666.6666666666667 2370.47Q699.81 2303.61, 766.6666666666667 2336.75Q840.13 2310.21, 866.6666666666667 2383.67Q935.78 2352.78, 966.6666666666667 2421.89Q1010.8 2366.02, 1066.6666666666667 2410.16Q1072.14 2248.97, 1233.3333333333335 2254.45Q1271.92 2193.04, 1333.3333333333335 2231.63Q1354.87 2153.16, 1433.3333333333335 2174.7Q1453.7 2028.4, 1600.0000000000002 2048.76Q1600.09 1882.18, 1766.666666666667 1882.27Q1811.48 1827.08, 1866.666666666667 1871.89Q1977.18 1815.73, 2033.3333333333337 1926.24z" fill="rgba(166, 81, 73, 1)"></path><path d="M2133.3333333333335 4000L0 4000 L0 2504.29Q110.26 2447.89, 166.66666666666669 2558.15Q233.31 2458.13, 333.33333333333337 2524.77Q421.7 2513.14, 433.33333333333337 2601.5Q754.73 2756.23, 600 3077.62Q427.58 2805.2, 700 2632.78Q1011.3 2777.42, 866.6666666666667 3088.72Q642.16 2764.22, 966.6666666666667 2539.71Q1231.3 2637.68, 1133.3333333333335 2902.31Q1037.61 2706.59, 1233.3333333333335 2610.86Q1456.46 2667.32, 1400.0000000000002 2890.44Q1513.26 2903.7, 1500.0000000000002 3016.96Q1375.81 2726.11, 1666.666666666667 2601.92Q1880.11 2715.36, 1766.666666666667 2928.8Q1760.88 2823.01, 1866.666666666667 2817.22Q1715.24 2565.8, 1966.666666666667 2414.37Q2170.52 2451.56, 2133.3333333333335 2655.41z" fill="rgba(156, 64, 55, 1)"></path><path d="M2066.666666666667 4000L0 4000 L0 3270.83Q-28.27 3142.56, 100 3114.28Q312.99 3227.28, 200 3440.27Q396.79 3470.4, 366.6666666666667 3667.19Q132.75 3333.27, 466.6666666666667 3099.35Q806.32 3272.33, 633.3333333333334 3611.98Q554.6 3433.25, 733.3333333333334 3354.52Q617.34 3138.53, 833.3333333333334 3022.53Q1197.42 3286.62, 933.3333333333334 3650.71Q818.12 3435.49, 1033.3333333333335 3320.28Q1027.27 3214.22, 1133.3333333333335 3208.15Q1062.14 3036.96, 1233.3333333333335 2965.77Q1569.72 3202.15, 1333.3333333333335 3538.54Q1111.56 3216.77, 1433.3333333333335 2995Q1654.04 3115.71, 1533.3333333333335 3336.42Q1452.42 3088.84, 1700.0000000000002 3007.93Q2012.18 3153.45, 1866.666666666667 3465.63Q1982.77 3481.73, 1966.666666666667 3597.83Q1916.35 3447.51, 2066.666666666667 3397.19z" fill="rgba(89, 40, 40, 1)"></path><path d="M2100.0000000000005 4000L0 4000 L0 3899.62Q-157.35 3642.26, 100 3484.91Q414.72 3699.63, 200 4014.34Q80.17 3727.84, 366.6666666666667 3608.01Q557.46 3698.8, 466.6666666666667 3889.59Q326.87 3649.79, 566.6666666666667 3509.99Q950.65 3727.31, 733.3333333333335 4111.29Q710.86 3922.15, 900.0000000000002 3899.68Q801.92 3634.94, 1066.666666666667 3536.86Q1477.01 3780.54, 1233.3333333333337 4190.88Q1016.52 3874.07, 1333.3333333333337 3657.25Q1529.66 3686.91, 1500.0000000000005 3883.23Q1415.47 3698.7, 1600.0000000000005 3614.17Q1917.83 3765.34, 1766.6666666666672 4083.17Q1696.89 3846.72, 1933.333333333334 3776.94Q1873.55 3550.49, 2100.0000000000005 3490.71z" fill="rgba(65, 36, 36, 1)"></path></g><defs><mask id="SvgjsMask1106"><rect width="2000" height="4000" fill="#ffffff"></rect></mask></defs></svg>