<svg id="visual" viewBox="0 0 1500 4000" width="1500" height="4000" xmlns="http://www.w3.org/2000/svg" xmlns:xlink="http://www.w3.org/1999/xlink" version="1.1"><rect x="0" y="0" width="1500" height="4000" fill="#1c1c1c"></rect><path d="M0 952L214 864L429 938L643 864L857 954L1071 1039L1286 880L1500 1018L1500 4001L1286 4001L1071 4001L857 4001L643 4001L429 4001L214 4001L0 4001Z" fill="#63009b"></path><path d="M0 1333L214 1314L429 1306L643 1329L857 1377L1071 1330L1286 1307L1500 1332L1500 4001L1286 4001L1071 4001L857 4001L643 4001L429 4001L214 4001L0 4001Z" fill="#5e008a"></path><path d="M0 1811L214 1806L429 1780L643 1862L857 1870L1071 1844L1286 1767L1500 1773L1500 4001L1286 4001L1071 4001L857 4001L643 4001L429 4001L214 4001L0 4001Z" fill="#580079"></path><path d="M0 2269L214 2214L429 2155L643 2154L857 2169L1071 2279L1286 2178L1500 2187L1500 4001L1286 4001L1071 4001L857 4001L643 4001L429 4001L214 4001L0 4001Z" fill="#510069"></path><path d="M0 2670L214 2659L429 2620L643 2664L857 2590L1071 2678L1286 2681L1500 2609L1500 4001L1286 4001L1071 4001L857 4001L643 4001L429 4001L214 4001L0 4001Z" fill="#4a005a"></path><path d="M0 3107L214 3075L429 3036L643 3112L857 3098L1071 3067L1286 3062L1500 3027L1500 4001L1286 4001L1071 4001L857 4001L643 4001L429 4001L214 4001L0 4001Z" fill="#42004b"></path><path d="M0 3511L214 3466L429 3476L643 3475L857 3527L1071 3472L1286 3451L1500 3520L1500 4001L1286 4001L1071 4001L857 4001L643 4001L429 4001L214 4001L0 4001Z" fill="#39003e"></path></svg>