<svg xmlns="http://www.w3.org/2000/svg" version="1.1" xmlns:xlink="http://www.w3.org/1999/xlink" xmlns:svgjs="http://svgjs.com/svgjs" width="2500" height="4000" preserveAspectRatio="none" viewBox="0 0 2500 4000"><g mask="url(&quot;#SvgjsMask1040&quot;)" fill="none"><rect width="2500" height="4000" x="0" y="0" fill="rgba(255, 231, 217, 1)"></rect><path d="M 0,207 C 250,306.2 750,672 1250,703 C 1750,734 2250,430.2 2500,362L2500 4000L0 4000z" fill="rgba(242, 195, 167, 1)"></path><path d="M 0,1528 C 166.8,1489 500.4,1282 834,1333 C 1167.6,1384 1334.8,1797.4 1668,1783 C 2001.2,1768.6 2333.6,1365.4 2500,1261L2500 4000L0 4000z" fill="rgba(217, 114, 91, 1)"></path><path d="M 0,2031 C 250,2149 750,2566.4 1250,2621 C 1750,2675.6 2250,2367.4 2500,2304L2500 4000L0 4000z" fill="rgba(166, 81, 73, 1)"></path><path d="M 0,3398 C 166.8,3430 500.4,3553.6 834,3558 C 1167.6,3562.4 1334.8,3344 1668,3420 C 2001.2,3496 2333.6,3834.4 2500,3938L2500 4000L0 4000z" fill="rgba(89, 40, 40, 1)"></path></g><defs><mask id="SvgjsMask1040"><rect width="2500" height="4000" fill="#ffffff"></rect></mask></defs></svg>